<svg id="Layer_1" data-name="Layer 1" xmlns="http://www.w3.org/2000/svg" viewBox="0 0 140.53 85.4"><defs><style>.cls-1{fill:#fff;}</style></defs><path class="cls-1" d="M0,34.2Q0,19.7,20.72,0l8.86,4.57Q19.77,17.19,18.65,23.8l11.11,5.67a21.42,21.42,0,0,1-3.11,10.88,36.2,36.2,0,0,1-6.31,8.35Q9.8,48.7,3.58,44,0,41.29,0,34.2Zm36.73,0Q36.73,19.7,57.46,0l8.85,4.57Q56.52,17.19,55.39,23.8L66.5,29.47a21.42,21.42,0,0,1-3.11,10.88,36.2,36.2,0,0,1-6.31,8.35Q46.54,48.7,40.31,44q-3.53-2.69-3.54-9.77Z" transform="translate(0 0)"/><path class="cls-1" d="M140.53,51.2q0,14.5-20.72,34.2L111,80.83q9.81-12.61,10.93-19.23l-11.11-5.67a21.37,21.37,0,0,1,3.1-10.87,36.24,36.24,0,0,1,6.32-8.35q10.55,0,16.76,4.72Q140.54,44.11,140.53,51.2Zm-36.73,0q0,14.5-20.73,34.2l-8.85-4.57Q84,68.22,85.14,61.6L74,55.93a21.35,21.35,0,0,1,3.14-10.88,35.71,35.71,0,0,1,6.31-8.35q10.55,0,16.77,4.72Q103.79,44.12,103.8,51.2Z" transform="translate(0 0)"/></svg>