<svg id="Layer_1" data-name="Layer 1" xmlns="http://www.w3.org/2000/svg" xmlns:xlink="http://www.w3.org/1999/xlink" viewBox="0 0 140.53 85.4"><defs><style>.cls-1{fill:#231f20;}.cls-2{fill:url(#radial-gradient);}</style><radialGradient id="radial-gradient" cx="177.27" cy="109" r="29.15" gradientTransform="matrix(1, 0, 0, -1, 0, 492)" gradientUnits="userSpaceOnUse"><stop offset="0.57" stop-color="#130c0e"/><stop offset="0.8" stop-color="#130c0e"/><stop offset="1" stop-color="#130c0e"/></radialGradient></defs><path class="cls-1" d="M70,356.15q0-14.5,20.72-34.2l8.86,4.57q-9.81,12.62-10.93,19.23l11.11,5.67a21.42,21.42,0,0,1-3.11,10.88,36.2,36.2,0,0,1-6.31,8.35q-10.55,0-16.76-4.73Q70,363.24,70,356.15Zm36.73,0q0-14.5,20.73-34.2l8.85,4.57q-9.8,12.62-10.92,19.23l11.11,5.67a21.42,21.42,0,0,1-3.11,10.88,36.2,36.2,0,0,1-6.31,8.35q-10.55,0-16.77-4.73-3.53-2.69-3.54-9.77Z" transform="translate(-70 -321.95)"/><path class="cls-2" d="M210.53,373.15q0,14.5-20.72,34.2L181,402.78q9.81-12.61,10.93-19.23l-11.11-5.67a21.37,21.37,0,0,1,3.1-10.87,36.24,36.24,0,0,1,6.32-8.35q10.55,0,16.76,4.72Q210.54,366.07,210.53,373.15Zm-36.73,0q0,14.5-20.73,34.2l-8.85-4.57q9.79-12.61,10.92-19.23L144,377.88A21.35,21.35,0,0,1,147.14,367a35.71,35.71,0,0,1,6.31-8.35q10.55,0,16.77,4.72Q173.79,366.07,173.8,373.15Z" transform="translate(-70 -321.95)"/></svg>